<svg xmlns="http://www.w3.org/2000/svg" fill="none" viewBox="0 0 24 24"><path fill="#0A0B0D" d="M20 2a3 3 0 1 1 0 6q-.062 0-.123-.004l-1.9 4.751A3 3 0 0 1 19 15a3 3 0 1 1-5.928-.651l-3.206-2.003a2.98 2.98 0 0 1-2.102.643L6.06 16.823a3 3 0 1 1-1.827-.813l1.704-3.835A3 3 0 0 1 5 10a3 3 0 1 1 5.927.65l3.206 2.003a3 3 0 0 1 1.986-.65L18.02 7.25A3 3 0 0 1 17 5a3 3 0 0 1 3-3M4 17.9a1.1 1.1 0 1 0 0 2.2 1.1 1.1 0 0 0 0-2.2m12-4a1.1 1.1 0 1 0 0 2.2 1.1 1.1 0 0 0 0-2.2m-8-5a1.1 1.1 0 1 0 0 2.2 1.1 1.1 0 0 0 0-2.2m12-5a1.1 1.1 0 1 0 0 2.2 1.1 1.1 0 0 0 0-2.2"/></svg>