<svg xmlns="http://www.w3.org/2000/svg" fill="none" viewBox="0 0 16 16"><path fill="#0A0B0D" d="M13.251 1a2.248 2.248 0 0 1 .074 4.497l-1.095 2.81a2.25 2.25 0 1 1-3.69 1.28L6.567 8.322c-.37.268-.824.429-1.316.429l-.092-.005-.98 2.267A2.25 2.25 0 1 1 2.75 10.5h.015l1.001-2.312A2.25 2.25 0 1 1 7.501 6.5c0 .204-.03.4-.081.587l1.873 1.2a2.24 2.24 0 0 1 1.458-.536q.043.001.085.004l1.057-2.714A2.25 2.25 0 0 1 13.252 1M2.75 12a.75.75 0 1 0 .001 1.501.75.75 0 0 0 0-1.5m8.002-2.75a.75.75 0 1 0 0 1.5.75.75 0 0 0 0-1.5m-5.5-3.5a.75.75 0 1 0 0 1.5.75.75 0 0 0 0-1.5m8-3.252a.75.75 0 1 0 0 1.5.75.75 0 0 0 0-1.5"/></svg>