<svg xmlns="http://www.w3.org/2000/svg" fill="none" viewBox="0 0 12 12"><path fill="#0A0B0D" d="M10 1a1.5 1.5 0 0 1 .045 2.997l-.979 2.448a1.5 1.5 0 1 1-2.549.836l-1.67-1.045A1.5 1.5 0 0 1 4 6.5l-.012-.001-.884 1.99c.245.266.396.62.396 1.011A1.5 1.5 0 1 1 2 8h.009l.885-1.99A1.5 1.5 0 1 1 5.5 5q-.001.111-.019.218l1.671 1.044c.229-.157.503-.25.8-.26l.98-2.45A1.5 1.5 0 0 1 10 1M2 9a.5.5 0 1 0 0 1 .5.5 0 0 0 0-1m6-2a.5.5 0 1 0 0 1 .5.5 0 0 0 0-1M4 4.5a.5.5 0 1 0 0 1 .5.5 0 0 0 0-1M10 2a.5.5 0 1 0 0 1 .5.5 0 0 0 0-1"/></svg>