<svg xmlns="http://www.w3.org/2000/svg" fill="none" viewBox="0 0 24 24"><path fill="#0A0B0D" d="M7.433 5.433A7.99 7.99 0 0 0 4 12a7.99 7.99 0 0 0 3.433 6.566L5.999 20A9.99 9.99 0 0 1 2 12a9.99 9.99 0 0 1 3.999-8.001zM18 3.999A9.99 9.99 0 0 1 22 12a9.98 9.98 0 0 1-4 8l-1.434-1.434A7.99 7.99 0 0 0 20 12a7.99 7.99 0 0 0-3.434-6.567zm-7.645 4.355a4 4 0 0 0 0 7.292l-1.479 1.477A6 6 0 0 1 6 12c0-2.17 1.151-4.07 2.876-5.124zm4.768-1.478A6 6 0 0 1 18 12c0 2.17-1.152 4.07-2.877 5.123l-1.477-1.478a4 4 0 0 0 0-7.29zM12 10a2 2 0 1 1 0 4 2 2 0 0 1 0-4"/></svg>