<svg xmlns="http://www.w3.org/2000/svg" fill="none" viewBox="0 0 24 24"><path fill="#0A0B0D" d="M8.152 6.152A7 7 0 0 0 5 12a6.99 6.99 0 0 0 3.152 5.847L6 20a9.99 9.99 0 0 1-4-8 9.99 9.99 0 0 1 3.999-8.001zM18 4a9.99 9.99 0 0 1 4 8 9.98 9.98 0 0 1-4 8l-2.153-2.153A6.99 6.99 0 0 0 19 12a6.99 6.99 0 0 0-3.153-5.848zm-6.871 5.13a3 3 0 0 0 0 5.741l-2.253 2.253A6 6 0 0 1 6 12c0-2.17 1.151-4.07 2.876-5.124zm3.994-2.253A6 6 0 0 1 18 12c0 2.17-1.152 4.07-2.877 5.123L12.87 14.87a3 3 0 0 0 0-5.741zM12 10a2 2 0 1 1 0 4 2 2 0 0 1 0-4"/></svg>