<svg xmlns="http://www.w3.org/2000/svg" fill="none" viewBox="0 0 16 16"><path fill="#0A0B0D" d="M5.295 3.795A5 5 0 0 0 3 8c0 1.764.915 3.314 2.295 4.204l-1.438 1.438A6.99 6.99 0 0 1 1 8a6.99 6.99 0 0 1 2.857-5.643zm6.847-1.438A6.99 6.99 0 0 1 15 8a6.99 6.99 0 0 1-2.858 5.642l-1.438-1.438A5 5 0 0 0 13 8a5 5 0 0 0-2.296-4.205zm-4.795 3.49a2.25 2.25 0 0 0 0 4.305L5.84 11.66a4.247 4.247 0 0 1 0-7.32zm2.812-1.507a4.247 4.247 0 0 1 0 7.32l-1.507-1.508a2.25 2.25 0 0 0 0-4.305zM8 6.5a1.5 1.5 0 1 1 0 3 1.5 1.5 0 0 1 0-3"/></svg>