<svg xmlns="http://www.w3.org/2000/svg" fill="none" viewBox="0 0 16 16"><path fill="#0A0B0D" d="M4.934 3.434A5.5 5.5 0 0 0 2.5 8c0 1.902.966 3.578 2.434 4.565l-1.077 1.077A6.99 6.99 0 0 1 1 8a6.99 6.99 0 0 1 2.857-5.643zm7.208-1.077A6.99 6.99 0 0 1 15 8a6.99 6.99 0 0 1-2.858 5.642l-1.077-1.077A5.5 5.5 0 0 0 13.5 8a5.5 5.5 0 0 0-2.435-4.566zM6.956 5.456a2.75 2.75 0 0 0 0 5.087L5.84 11.659a4.247 4.247 0 0 1 0-7.32zM10.16 4.34a4.247 4.247 0 0 1 0 7.32l-1.116-1.117a2.749 2.749 0 0 0 0-5.087zM8 6.5a1.5 1.5 0 1 1 0 3 1.5 1.5 0 0 1 0-3"/></svg>